<svg viewBox="0 0 815 941" xmlns="http://www.w3.org/2000/svg" xml:space="preserve" style="fill-rule:evenodd;clip-rule:evenodd;stroke-linejoin:round;stroke-miterlimit:2"><g transform="translate(-92.68 -29.673)"><path style="fill:none" d="M92.68 29.673h814.64v940.654H92.68z"/><clipPath id="a"><path d="M92.68 29.673h814.64v940.654H92.68z"/></clipPath><g clip-path="url(#a)"><path d="M50 6.272 12.13 28.137v43.728L50 93.728l37.87-21.863V28.137L50 6.272Zm28.438 26.419L51 16.85V9.159L84.898 28.73l-6.46 3.961ZM50 59.352l-7.21-4.162v-8.326L50 42.701l7.209 4.162v8.326L50 59.352Zm-1-18.384-6.67 3.851-7.902-4.675L49 31.731v9.237Zm-8.21 5.264v8.625l-8 4.451v-17.81l8 4.734Zm.708 10.521L49 61.083v9.238l-15.65-9.035 8.148-4.533ZM51 61.083l7.502-4.331 8.148 4.534L51 70.321v-9.238Zm8.209-6.228v-8.73.738l8.001-4.939v17.383l-8.001-4.452Zm-.994-9.72.599.346L51 40.969v-9.237l14.94 8.625-7.725 4.778ZM49 29.422l-16.547 9.553-8.779-5.194L49 19.159v10.263ZM30.79 40.315v20.107l-8 4.451V35.582l8 4.733Zm.523 22.105L49 72.63v8.212L24.071 66.449l7.242-4.029ZM51 72.63l17.687-10.211 7.243 4.03L51 80.842V72.63Zm18.21-12.209V40.698l8-4.907v29.081l-8-4.451Zm-1.331-21.253L51 29.423V19.159l25.5 14.722-8.621 5.287ZM49 16.849 21.699 32.612l-6.579-3.893L49 9.159v7.69ZM20.79 34.398v31.588l-6.66 3.705V30.458l6.66 3.94Zm1.244 33.185L49 83.15v7.691L15.251 71.357l6.783-3.774ZM51 83.15l26.966-15.568 6.783 3.775L51 90.842V83.15Zm28.21-17.165V34.564l6.66-4.085v39.212l-6.66-3.706Z" style="fill:url(#b);fill-rule:nonzero" transform="translate(-37.107 -37.114) scale(10.7557)"/></g></g><defs><linearGradient id="b" x1="0" y1="0" x2="1" y2="0" gradientUnits="userSpaceOnUse" gradientTransform="scale(77.9618) rotate(28.3 -.082 .349)"><stop offset="0" style="stop-color:#0978a6;stop-opacity:1"/><stop offset="1" style="stop-color:#fb9447;stop-opacity:1"/></linearGradient></defs></svg>